<svg width="48" height="48" viewBox="0 0 48 48" fill="none" xmlns="http://www.w3.org/2000/svg">
<path d="M18.492 13.037C18.492 7.054 24.001 0 24.001 0C24.001 0 29.51 7.054 29.51 13.037C29.51 19.02 24.001 21.667 24.001 21.667C24.001 21.667 18.492 19.021 18.492 13.037ZM11.572 28.686C16.365 32.266 21.783 29.436 21.783 29.436C21.783 29.436 22.959 23.439 18.165 19.858C13.372 16.277 4.42401 16.469 4.42401 16.469C4.42401 16.469 6.77901 25.104 11.572 28.686ZM27.193 29.841C28.965 30.468 32.87 31.344 36.429 28.686C41.222 25.104 43.575 16.469 43.575 16.469C43.575 16.469 34.628 16.278 29.835 19.858C26.681 22.213 26.11 25.613 26.091 27.666H26.09V35.902H26.041H6.22001C6.22001 42.607 14.236 48 24.001 48C33.768 48 41.781 42.607 41.781 35.902H27.193V29.841Z" fill="#00B929"/>
</svg>
